<?xml version="1.0" encoding="utf-8" standalone="no"?>
<svg xmlns="http://www.w3.org/2000/svg" width="2400" height="2000" version="1.1">
<rect style="fill:#6d7d8f;fill-opacity:1;stroke:none;stroke-width:0.776;stroke-miterlimit:4;stroke-dasharray:none;stroke-opacity:1" width="1056" height="202" x="532" y="3" /><text style="font-size:80px;line-height:1.25;font-family:sans-serif;-inkscape-font-specification:'sans-serif, Normal'" x="720" y="129">48 vues d'Ecosse</text><image href="img/rIMG_1940.jpg" x="26" y="264" width="250" height="187"/>
<image href="img/rIMG_1942.jpg" x="251" y="330" width="250" height="187"/>
<image href="img/rIMG_1944.jpg" x="121" y="541" width="250" height="187"/>
<image href="img/rIMG_1950.jpg" x="542" y="264" width="250" height="187"/>
<image href="img/rIMG_1952.jpg" x="780" y="436" width="250" height="187"/>
<image href="img/rIMG_1954.jpg" x="476" y="488" width="250" height="187"/>
<image href="img/rIMG_1957.jpg" x="627" y="700" width="250" height="187"/>
<image href="img/rIMG_1958.jpg" x="859" y="806" width="250" height="187"/>
<image href="img/rIMG_1960.jpg" x="375" y="780" width="250" height="187"/>
<image href="img/rIMG_1961.jpg" x="50" y="753" width="250" height="187"/>
<image href="img/rIMG_1962.jpg" x="92" y="991" width="250" height="187"/>
<image href="img/rIMG_1965.jpg" x="595" y="991" width="250" height="187"/>
<image href="img/rIMG_1966.jpg" x="806" y="1150" width="250" height="187"/>
<image href="img/rIMG_1969.jpg" x="306" y="1036" width="250" height="187"/>
<image href="img/rIMG_1971.jpg" x="542" y="1229" width="250" height="187"/>
<image href="img/rIMG_1972.jpg" x="58" y="1243" width="250" height="187"/>
<image href="img/rIMG_1973.jpg" x="2069" y="1430" width="250" height="187"/>
<image href="img/rIMG_1975.jpg" x="1828" y="1399" width="250" height="187"/>
<image href="img/rIMG_1976.jpg" x="1961" y="1184" width="250" height="187"/>
<image href="img/rIMG_1978.jpg" x="1455" y="1418" width="250" height="187"/>
<image href="img/rIMG_1979.jpg" x="1236" y="1236" width="250" height="187"/>
<image href="img/rIMG_1980.jpg" x="1622" y="1224" width="250" height="187"/>
<image href="img/rIMG_1993.jpg" x="1460" y="1018" width="250" height="187"/>
<image href="img/rIMG_1995.jpg" x="1248" y="812" width="250" height="187"/>
<image href="img/rIMG_1997.jpg" x="1776" y="914" width="250" height="187"/>
<image href="img/rIMG_1998.jpg" x="2020" y="878" width="250" height="187"/>
<image href="img/rIMG_1999.jpg" x="2022" y="652" width="250" height="187"/>
<image href="img/rIMG_2001.jpg" x="1528" y="731" width="250" height="187"/>
<image href="img/rIMG_2003.jpg" x="1288" y="490" width="250" height="187"/>
<image href="img/rIMG_2004.jpg" x="1795" y="689" width="250" height="187"/>
<image href="img/rIMG_2005.jpg" x="1641" y="433" width="250" height="187"/>
<image href="img/rIMG_2006.jpg" x="2009" y="404" width="250" height="187"/>
<image href="img/rIMG_2007.jpg" x="1086" y="1444" width="250" height="187"/>
<image href="img/rIMG_2008.jpg" x="1311" y="1510" width="250" height="187"/>
<image href="img/rIMG_2010.jpg" x="1181" y="1721" width="250" height="187"/>
<image href="img/rIMG_2015.jpg" x="1572" y="1444" width="250" height="187"/>
<image href="img/rIMG_2016.jpg" x="1854" y="1454" width="250" height="187"/>
<image href="img/rIMG_2018.jpg" x="1498" y="1700" width="250" height="187"/>
<image href="img/rIMG_2019.jpg" x="1702" y="1638" width="250" height="187"/>
<image href="img/rIMG_2020.jpg" x="1908" y="1683" width="250" height="187"/>
<image href="img/rIMG_2021.jpg" x="626" y="1742" width="250" height="187"/>
<image href="img/rIMG_2023.jpg" x="225" y="1584" width="250" height="187"/>
<image href="img/rIMG_2024.jpg" x="532" y="1532" width="250" height="187"/>
<image href="img/rIMG_2025.jpg" x="397" y="1756" width="250" height="187"/>
<image href="img/rIMG_2026.jpg" x="859" y="1640" width="250" height="187"/>
<image href="img/rIMG_2032.jpg" x="25" y="1457" width="250" height="187"/>
<image href="img/rIMG_2033.jpg" x="802" y="1414" width="250" height="187"/>
<image href="img/rIMG_2046.jpg" x="318" y="1361" width="250" height="187"/>
</svg>
